<svg width="40" height="40" viewBox="0 0 40 40" fill="none" xmlns="http://www.w3.org/2000/svg">
<g clip-path="url(#clip0_985_2040)">
<path d="M18.1707 20.1204C19.2798 20.3067 20.3548 20.4863 21.4275 20.6658C22.4639 20.8385 23.498 21.0272 24.5366 21.1749C24.7366 21.2044 24.9616 21.0908 25.1707 21.0249C25.5343 20.9113 25.8934 20.6817 26.257 20.6772C28.3502 20.6431 30.4434 20.6567 32.5343 20.6613C33.573 20.6635 34.382 21.4772 34.3911 22.5158C34.398 23.1249 34.3911 23.7363 34.3911 24.4022C34.5457 24.4022 34.6843 24.4022 34.8207 24.4022C35.9002 24.4022 36.9775 24.4022 38.057 24.4022C38.8661 24.4022 39.382 24.9067 39.382 25.7044C39.382 29.8249 39.382 33.9454 39.382 38.0635C39.382 38.8613 38.8661 39.3681 38.0593 39.3681C25.8661 39.3681 13.673 39.3681 1.47977 39.3681C0.897956 39.3681 0.700229 39.1635 0.700229 38.5613C0.700229 34.2863 0.697956 30.009 0.700229 25.734C0.700229 23.509 2.23659 21.7204 4.42523 21.3635C6.81841 20.9749 9.21159 20.5749 11.6025 20.1772C11.7048 20.1613 11.8025 20.1249 11.9275 20.0908C11.9275 19.6363 11.9366 19.1817 11.9207 18.7294C11.9161 18.6385 11.832 18.5181 11.7502 18.4635C9.86387 17.2249 8.89341 15.4726 8.78659 13.1658C8.60932 13.1658 8.42068 13.1658 8.23205 13.1658C7.15023 13.159 6.32296 12.3681 6.31387 11.3317C6.30477 10.2704 7.08432 9.46581 8.16159 9.4249C8.22523 9.42263 8.28887 9.41581 8.40023 9.40672C8.20477 9.01126 8.02296 8.64308 7.84114 8.27263C6.73659 6.02263 7.73887 3.59535 10.0957 2.72717C10.4957 2.57944 10.8411 2.26808 11.1934 2.00672C12.3911 1.11353 13.7366 0.647626 15.2252 0.708989C15.8775 0.736262 16.5525 0.845353 17.1639 1.06353C18.0639 1.38399 18.9457 1.78399 19.7866 2.24081C22.0525 3.4749 22.9616 6.1999 21.9639 8.6249C21.8616 8.87263 21.757 9.12035 21.6502 9.3749C23.1866 9.62035 23.8275 10.2454 23.782 11.4158C23.7389 12.5181 22.9752 13.0704 21.3389 13.1772C21.273 13.6181 21.232 14.0681 21.1366 14.5044C20.773 16.1567 19.8639 17.4408 18.4593 18.3704C18.2343 18.5204 18.148 18.6704 18.1639 18.9317C18.1843 19.3067 18.1684 19.684 18.1684 20.1067L18.1707 20.1204ZM24.398 22.4635C24.2775 22.4317 24.1798 22.3999 24.0775 22.3817C22.2116 22.0681 20.3389 21.7794 18.4798 21.434C17.9457 21.334 17.5684 21.4249 17.2343 21.8522C17.1002 22.0226 17.0275 22.1476 17.1116 22.3635C17.248 22.7135 17.3389 23.0794 17.4752 23.4294C17.5934 23.7408 17.548 24.0044 17.3593 24.2704C17.1116 24.6204 16.9025 24.9976 16.6366 25.3317C16.4116 25.6135 16.4161 25.8567 16.557 26.1772C16.8775 26.8999 17.1707 27.634 17.4411 28.3772C17.5207 28.5931 17.5366 28.8635 17.4866 29.0908C17.1275 30.7363 16.7457 32.3772 16.3661 34.0181C16.1389 35.0022 15.907 35.9863 15.6752 36.9704C15.598 37.2999 15.4025 37.4999 15.0525 37.4999C14.7025 37.4999 14.507 37.2999 14.4298 36.9704C14.4116 36.8954 14.3866 36.8204 14.3684 36.7454C13.782 34.1954 13.1911 31.6454 12.6207 29.0931C12.5707 28.8681 12.5889 28.5976 12.6661 28.3794C12.9048 27.709 13.1434 27.0317 13.4661 26.3976C13.723 25.8954 13.6184 25.5431 13.323 25.1044C12.307 23.5908 12.4139 24.184 12.9525 22.4726C13.123 21.9317 12.5457 21.2976 11.9752 21.3931C9.70023 21.7772 7.42977 22.2113 5.14341 22.5135C2.76386 22.8272 1.90477 24.409 1.92977 26.1772C1.98432 29.9954 1.94568 33.8181 1.94568 37.6363V38.1044H6.9525V27.5431H8.19114V38.1022H19.4184C19.4184 37.934 19.4184 37.7931 19.4184 37.6499C19.4184 33.6749 19.4184 29.6976 19.4184 25.7226C19.4184 24.9204 19.9298 24.409 20.7275 24.4044C21.3252 24.4022 21.923 24.4044 22.5207 24.4044C23.1389 24.4044 23.7593 24.4044 24.3934 24.4044V22.4635H24.398ZM10.9025 7.91581C10.7025 8.31353 10.5343 8.69081 10.3275 9.04763C10.1184 9.40899 10.0434 9.77944 10.0525 10.1954C10.0752 11.1431 10.057 12.0908 10.0593 13.0385C10.0661 16.2044 12.6275 18.4749 15.7639 18.0976C17.882 17.8431 19.7639 16.0113 19.9616 13.9022C20.0707 12.7431 19.973 11.5658 20.0616 10.4044C20.1366 9.42263 19.5502 8.73626 19.2025 7.92035C16.4252 9.94762 13.6866 9.94763 10.9002 7.91808L10.9025 7.91581ZM31.2752 30.6249C32.6434 30.6249 33.9684 30.6794 35.2866 30.609C36.4275 30.5476 37.2843 29.9249 37.8048 28.8976C38.3298 27.8613 38.0911 26.7499 38.1389 25.6681H20.6661C20.6661 26.2408 20.6661 26.7954 20.6661 27.3499C20.673 29.2885 22.0093 30.634 23.9434 30.6408C25.0207 30.6454 26.1002 30.6408 27.1775 30.6408C27.2889 30.6408 27.4002 30.6272 27.532 30.6181C27.532 30.0044 27.5275 29.4204 27.532 28.8385C27.5366 28.3726 27.7593 28.1522 28.2298 28.1499C28.9957 28.1454 29.7639 28.1454 30.5298 28.1499C31.0639 28.1499 31.2707 28.3658 31.273 28.9135C31.273 29.4704 31.273 30.0294 31.273 30.6272L31.2752 30.6249ZM31.4207 31.8863C31.2502 32.4954 31.1775 33.0704 30.932 33.559C30.6548 34.1067 30.1025 34.3567 29.4752 34.384C28.998 34.4044 28.582 34.2567 28.2139 33.9613C27.5548 33.4317 27.4775 32.6931 27.5457 31.8885C26.2502 31.8885 25.0048 31.8863 23.7616 31.8885C22.9889 31.8908 22.273 31.6885 21.6116 31.3022C21.2957 31.1158 21.0093 30.8817 20.698 30.6635V35.6067H38.1093V30.6204C37.0843 31.5931 35.907 31.9431 34.5707 31.8976C33.4934 31.8613 32.4161 31.8908 31.4252 31.8908L31.4207 31.8863ZM13.9411 5.39308C12.9457 4.30217 12.5889 4.03626 11.9434 3.89535C11.0616 3.70444 10.2661 3.88172 9.57523 4.46353C8.47068 5.39308 8.35023 7.03172 9.31159 8.26126C9.56159 7.76581 9.80478 7.28399 10.0502 6.80217C10.3366 6.24308 10.6911 6.16126 11.2048 6.53853C11.498 6.75444 11.7843 6.97944 12.0798 7.18853C13.448 8.15672 14.9389 8.41808 16.5525 7.94308C17.4593 7.6749 18.1707 7.07944 18.9116 6.53172C19.4207 6.15444 19.773 6.24308 20.0639 6.80899C20.2934 7.25672 20.5184 7.70444 20.773 8.20444C20.832 8.06353 20.8707 7.98626 20.9002 7.90672C21.5389 6.12263 20.757 4.14081 19.0548 3.27263C18.5002 2.99081 17.923 2.75444 17.3616 2.48853C16.4093 2.03853 15.4139 1.86581 14.3707 2.02035C13.7093 2.11808 13.0798 2.31126 12.4593 2.72035C13.5661 3.09308 14.3798 3.73626 14.948 4.72263C14.6048 4.95217 14.273 5.17263 13.9434 5.38853L13.9411 5.39308ZM38.1184 38.1113V36.9044H20.698V38.1113H38.1184ZM27.3366 21.9067C28.1752 22.5226 28.7889 23.2817 29.1616 24.2408C29.1934 24.3249 29.3752 24.3954 29.4889 24.3976C30.423 24.409 31.357 24.4044 32.2911 24.4044C32.5707 24.4044 32.8502 24.4044 33.148 24.4044C33.148 23.7544 33.1616 23.159 33.1434 22.5635C33.132 22.1454 32.873 21.909 32.432 21.909C30.7343 21.9022 29.0343 21.9067 27.3366 21.9067ZM15.0093 33.8635C15.0411 33.8613 15.073 33.8567 15.1025 33.8544C15.4752 32.2408 15.8548 30.6272 16.2161 29.0113C16.248 28.8726 16.207 28.7022 16.1525 28.5635C15.8957 27.8863 15.6298 27.209 15.3457 26.5431C15.298 26.4317 15.1502 26.309 15.0343 26.2954C14.9525 26.2863 14.8048 26.4272 14.7593 26.534C14.482 27.1908 14.2093 27.8499 13.9684 28.5204C13.898 28.7135 13.882 28.9522 13.923 29.1544C14.073 29.9044 14.2548 30.6454 14.4275 31.3908C14.6184 32.2158 14.8139 33.0408 15.007 33.8658L15.0093 33.8635ZM13.1798 19.1431C13.1798 19.4885 13.1707 19.7863 13.1843 20.0817C13.1911 20.2158 13.198 20.3908 13.2775 20.4749C13.848 21.0772 14.4366 21.659 15.0548 22.284C15.6707 21.6613 16.2548 21.0749 16.832 20.4794C16.8866 20.4226 16.9207 20.3204 16.923 20.2385C16.932 19.8885 16.9275 19.5408 16.9275 19.1317C15.6684 19.5135 14.4411 19.4908 13.182 19.1408L13.1798 19.1431ZM28.782 29.4113C28.782 30.4658 28.773 31.4885 28.7866 32.5135C28.7911 32.8772 29.0889 33.1408 29.4116 33.134C29.7207 33.1294 30.0116 32.8772 30.0184 32.534C30.0366 31.4999 30.0252 30.4635 30.0252 29.4113H28.782ZM25.6707 24.3863H27.7957C27.5002 23.5385 26.4911 22.7499 25.6707 22.7204V24.3863ZM14.0593 23.1863C13.8684 23.4635 13.8639 23.7658 14.1298 24.0772C14.3048 24.2817 14.4343 24.5272 14.5866 24.7544C14.8639 25.1658 15.2434 25.1613 15.5252 24.7431C15.6707 24.5272 15.7911 24.2908 15.9616 24.0999C16.2457 23.7817 16.2411 23.4749 16.0366 23.1817C15.707 23.384 15.3843 23.7385 15.0661 23.734C14.7298 23.7294 14.3957 23.384 14.0593 23.1863ZM8.80023 10.6772C8.37523 10.6976 7.91841 10.5522 7.68205 10.9908C7.59114 11.159 7.60023 11.4681 7.69796 11.634C7.95023 12.0567 8.39341 11.9113 8.79796 11.9181V10.6772H8.80023ZM21.3093 11.9249C21.732 11.9067 22.1866 12.0499 22.4252 11.6135C22.5161 11.4454 22.5093 11.1363 22.4116 10.9704C22.1616 10.5454 21.7161 10.6931 21.3116 10.684V11.9249H21.3093Z" fill="#1273EB"/>
</g>
<defs>
<clipPath id="clip0_985_2040">
<rect width="40" height="40" fill="white"/>
</clipPath>
</defs>
</svg>
