<svg width="39" height="40" viewBox="0 0 39 40" fill="none" xmlns="http://www.w3.org/2000/svg">
<path d="M24.7314 17.3332C24.7404 17.5621 24.8549 17.7238 24.9312 17.8946C25.0875 18.2362 25.062 18.5342 24.7768 18.8049C24.4134 19.1519 24.0609 19.508 23.7121 19.8677C23.4523 20.1348 23.1343 20.222 22.8436 20.0095C22.1787 19.5189 21.659 20.0403 21.1049 20.2275C20.9214 20.2893 20.9141 20.5999 20.836 20.8016C20.7124 21.125 20.5362 21.3739 20.1437 21.3576C19.9185 21.3467 19.9439 21.5048 19.9439 21.6465C19.9439 22.2133 19.9439 22.7784 19.9439 23.3453C19.9439 26.394 19.9457 29.4445 19.9384 32.4932C19.9384 32.7549 19.9966 32.8966 20.2655 33.0001C21.4446 33.458 22.0805 34.6481 21.8443 35.8926C21.6245 37.0536 20.5344 37.9421 19.3298 37.9439C18.0889 37.9439 17.0441 37.0718 16.7934 35.8254C16.5609 34.668 17.2277 33.4453 18.3759 33.0038C18.6539 32.8966 18.703 32.7567 18.7011 32.4987C18.6957 28.9213 18.6957 25.3456 18.6993 21.7682C18.6993 21.5229 18.7211 21.3194 18.3578 21.3376C18.0834 21.3503 17.8944 21.1268 17.8581 20.8761C17.7436 20.0694 17.0187 20.044 16.49 19.7787C16.3283 19.6988 16.1575 19.8677 15.9976 19.9386C15.3744 20.2129 15.2654 20.1948 14.7821 19.7097C14.5187 19.4462 14.2552 19.1828 13.99 18.9175C13.5321 18.4597 13.5158 18.3634 13.7792 17.7674C13.9076 17.4779 13.8156 17.3332 13.5031 17.3332C13.2069 17.3332 12.9089 17.3514 12.6164 17.3277C12.3184 17.3041 12.2185 17.3932 12.224 17.7057C12.2421 18.863 12.2312 20.0222 12.2312 21.1795C12.2312 23.4961 12.2367 25.8108 12.2258 28.1273C12.2258 28.4198 12.2894 28.5724 12.5873 28.6905C13.7501 29.1484 14.3788 30.3748 14.1226 31.6066C13.8828 32.7531 12.8072 33.6179 11.6153 33.6197C10.3708 33.6215 9.34058 32.7603 9.08258 31.5012C8.84821 30.362 9.50228 29.1375 10.6233 28.6941C10.9176 28.5779 10.9867 28.4307 10.9867 28.1364C10.9758 24.6625 10.9776 21.1886 10.9867 17.7147C10.9867 17.4259 10.9322 17.295 10.6124 17.3259C10.2418 17.3641 9.86021 17.3441 9.50228 17.2405C9.17161 17.1442 9.14436 17.2878 9.15344 17.553C9.16798 17.9891 9.15708 18.427 9.15708 18.8648C9.15708 20.7435 9.15708 22.6221 9.15708 24.5008C9.15708 25.3311 8.98629 25.5037 8.17233 25.5037C7.24572 25.5037 6.31911 25.511 5.3925 25.4983C5.15994 25.4946 5.03639 25.5437 4.94191 25.7835C4.44954 27.0317 3.19589 27.6731 1.91499 27.3551C0.683148 27.0517 -0.099927 25.8961 0.0109027 24.5498C0.109014 23.3707 1.16462 22.3841 2.4219 22.2933C3.47751 22.217 4.52767 22.8838 4.93283 23.9248C5.03094 24.1737 5.14722 24.2501 5.4034 24.2446C6.12289 24.2264 6.84419 24.2301 7.56549 24.2446C7.80713 24.2482 7.90161 24.1901 7.89979 23.9267C7.89071 21.5847 7.89253 19.2427 7.89979 16.9026C7.89979 16.7118 7.83257 16.6028 7.67995 16.4956C4.52585 14.2736 4.65121 9.92578 7.93613 7.90904C8.21593 7.73644 8.16142 7.50751 8.18141 7.27858C8.44668 4.23894 9.94197 2.00237 12.7073 0.746901C15.5361 -0.537633 18.2415 -0.130652 20.7161 1.74618C20.8996 1.88608 21.0522 1.93151 21.2738 1.877C25.1311 0.928589 28.912 3.24148 29.8186 7.1078C29.8859 7.39305 30.004 7.55475 30.2819 7.68011C32.3786 8.62852 33.5669 10.8687 33.1908 13.1162C32.8183 15.3346 30.9451 17.1333 28.7103 17.3078C27.5457 17.3986 26.3702 17.3314 25.2001 17.335C25.0475 17.335 24.8967 17.335 24.735 17.335L24.7314 17.3332ZM13.2105 16.0287C13.1524 16.0014 13.0961 15.9724 13.0361 15.9487C12.4184 15.7089 12.3657 15.6308 12.3639 14.9549C12.3639 14.646 12.3639 14.3372 12.3639 14.0283C12.3639 13.4227 12.6419 13.0108 13.1978 12.7928C13.3141 12.7474 13.4794 12.7492 13.5212 12.6148C13.6902 12.0497 14.208 11.5319 13.7174 10.8724C13.4958 10.5744 13.6121 10.2637 13.8737 10.0094C14.2153 9.67686 14.5587 9.34619 14.8821 8.99917C15.18 8.6794 15.4925 8.61944 15.8832 8.82293C16.0721 8.92104 16.301 9.12453 16.4791 9.03732C17.006 8.77751 17.7327 8.75752 17.8599 7.95265C17.9163 7.59109 18.2015 7.43847 18.5758 7.45119C19.0264 7.4639 19.477 7.453 19.9275 7.45482C20.5544 7.45482 20.6343 7.51659 20.8669 8.09436C20.9377 8.26878 20.9359 8.53405 21.1158 8.594C21.6736 8.77933 22.195 9.2826 22.8545 8.80113C23.1489 8.58492 23.4632 8.68303 23.7194 8.95011C24.041 9.28442 24.3734 9.60601 24.7005 9.93486C25.0984 10.3346 25.1165 10.4745 24.8985 10.9941C24.8204 11.1794 24.6205 11.3775 24.7077 11.5592C24.9603 12.0788 24.9676 12.791 25.7543 12.9254C26.1558 12.9945 26.3048 13.3034 26.2939 13.7013C26.2848 14.0356 26.2612 14.3735 26.2993 14.7042C26.3756 15.3819 26.1831 15.8652 25.4618 16.0287C25.449 16.0323 25.4454 16.0686 25.4345 16.0959C26.4138 16.0959 27.3931 16.1377 28.3688 16.0868C30.2347 15.9905 31.7391 14.597 31.9716 12.811C32.206 11.0105 31.1777 9.27352 29.4752 8.70483C28.9556 8.53223 28.7521 8.2488 28.6667 7.7328C28.0871 4.25348 24.6278 2.12773 21.2684 3.18334C20.8323 3.3196 20.5253 3.24693 20.191 2.94169C19.0264 1.87518 17.6292 1.33557 16.0594 1.28651C12.4038 1.17387 9.39145 4.14447 9.43142 7.82728C9.43687 8.34873 9.27881 8.64306 8.79188 8.87017C7.37835 9.52788 6.5117 11.0831 6.66068 12.5839C6.82602 14.2481 7.94158 15.5799 9.53499 15.9669C10.7487 16.2612 11.9841 16.0378 13.2142 16.0359L13.2105 16.0287ZM22.989 18.7158C23.2524 18.734 23.6848 18.1235 23.5522 17.891C23.2978 17.444 23.2997 17.0389 23.594 16.601C23.7557 16.3612 23.8683 16.0705 23.9265 15.7852C24.0173 15.3401 24.2535 15.0585 24.6878 14.9731C25.0312 14.904 25.0348 14.686 25.0421 14.4117C25.0493 14.1119 25.0093 13.8975 24.666 13.8248C24.2444 13.7358 24.0246 13.4614 23.9301 13.0363C23.8647 12.7401 23.7466 12.4403 23.5831 12.186C23.316 11.7735 23.2615 11.3811 23.5413 10.9705C23.7557 10.6562 23.505 10.5181 23.3378 10.3328C23.1725 10.1493 23.0271 10.0112 22.7582 10.1892C22.3676 10.449 21.9806 10.4272 21.5754 10.162C21.3229 9.99664 21.0231 9.87854 20.727 9.81131C20.2764 9.70957 19.9748 9.48064 19.8894 9.02642C19.824 8.68121 19.6005 8.68121 19.3262 8.67758C19.0445 8.67213 18.832 8.69938 18.7611 9.03187C18.6684 9.46066 18.405 9.70957 17.9562 9.80223C17.6601 9.864 17.3603 9.98573 17.1059 10.1511C16.6917 10.4182 16.2938 10.4599 15.8868 10.1892C15.6179 10.0094 15.4725 10.1529 15.309 10.3364C15.1455 10.5199 14.9002 10.6507 15.111 10.9687C15.369 11.3575 15.3617 11.7517 15.0837 12.1533C14.9093 12.404 14.7912 12.7002 14.7331 13.0036C14.6441 13.476 14.3752 13.7648 13.9137 13.8575C13.6048 13.9193 13.5903 14.121 13.5993 14.3699C13.6084 14.6242 13.5485 14.8859 13.9155 14.9549C14.4024 15.0476 14.6386 15.3746 14.7494 15.847C14.8148 16.1304 14.9275 16.4175 15.0856 16.661C15.3381 17.0516 15.3835 17.4331 15.1255 17.811C14.9202 18.1108 15.0965 18.2616 15.2818 18.4524C15.4725 18.6486 15.6361 18.8067 15.9268 18.6068C16.3083 18.3452 16.6862 18.3924 17.0732 18.6468C17.373 18.8448 17.7182 18.9575 18.0689 19.0465C18.2833 19.101 18.5213 19.1701 18.5958 19.3935C18.7011 19.7079 18.9101 19.7478 19.1863 19.7242C19.3516 19.7097 19.5206 19.7133 19.6877 19.7242C19.8331 19.7333 19.9366 19.697 19.982 19.548C20.0747 19.2391 20.3218 19.1246 20.6052 19.0392C20.8741 18.9593 21.1594 18.8866 21.3919 18.7395C21.8916 18.4215 22.3731 18.3198 22.8909 18.6722C22.9218 18.694 22.9599 18.7049 22.9908 18.7195L22.989 18.7158ZM3.87177 24.8678C3.87177 24.132 3.28492 23.5524 2.54545 23.5578C1.82051 23.5633 1.24638 24.1283 1.23911 24.8496C1.23003 25.5818 1.81688 26.1832 2.54545 26.1905C3.27038 26.1977 3.87177 25.5982 3.87177 24.8696V24.8678ZM12.918 31.0361C12.9126 30.2912 12.3366 29.7334 11.5826 29.7443C10.8631 29.7552 10.2835 30.3366 10.2817 31.0488C10.2817 31.761 10.9013 32.3806 11.6135 32.3788C12.3402 32.3751 12.9216 31.7756 12.9162 31.0361H12.918ZM19.3098 34.0667C18.574 34.0721 17.9817 34.6753 17.9998 35.4002C18.018 36.1052 18.6176 36.6957 19.3207 36.7011C20.042 36.7066 20.6379 36.1052 20.6361 35.3712C20.6361 34.6244 20.062 34.0612 19.3116 34.0667H19.3098Z" fill="#1273EB"/>
<path d="M29.348 33.3816C29.348 32.6222 29.3444 31.8627 29.3517 31.1032C29.3535 30.8925 29.3517 30.7544 29.0646 30.738C28.7448 30.7217 28.6122 30.4455 28.5068 30.1675C28.247 29.488 27.4657 29.1646 26.7971 29.4535C26.2866 29.6752 26.1612 29.6516 25.7724 29.2664C25.4799 28.9757 25.2001 28.6723 24.8967 28.3961C24.5842 28.109 24.4952 27.7711 24.7277 27.4331C25.1401 26.8372 24.6569 26.3957 24.4933 25.9106C24.4515 25.7889 24.1699 25.7325 23.9901 25.6744C23.5922 25.5436 23.4141 25.2783 23.4232 24.8641C23.4323 24.4389 23.4323 24.0138 23.4232 23.5904C23.4141 23.1744 23.5867 22.8673 23.9955 22.7928C24.7059 22.662 24.6787 22.0043 24.913 21.5465C24.9712 21.4356 24.8022 21.1958 24.7168 21.025C24.5297 20.6525 24.586 20.3419 24.8949 20.0548C25.2074 19.7677 25.5072 19.4661 25.7942 19.1536C26.0831 18.8411 26.4247 18.7666 26.7608 18.9937C27.3586 19.3953 27.8001 18.9138 28.287 18.7539C28.4069 18.7139 28.4559 18.4269 28.5177 18.2452C28.6467 17.8691 28.8902 17.6838 29.299 17.6983C29.7223 17.7147 30.1475 17.6983 30.5726 17.7019C31.114 17.7056 31.2703 17.7692 31.412 18.307C31.5882 18.9792 32.206 18.9501 32.6566 19.1718C32.771 19.2281 33.0054 19.0555 33.1798 18.9738C33.5359 18.8066 33.843 18.8429 34.121 19.1427C34.4189 19.4625 34.7296 19.7714 35.0476 20.0711C35.3419 20.3491 35.4346 20.6744 35.2057 21.0014C34.7932 21.5901 35.2583 22.0388 35.4182 22.5294C35.4746 22.6984 35.7435 22.7147 35.9233 22.7747C36.3358 22.9091 36.5229 23.1816 36.5084 23.6141C36.4956 24.0247 36.4975 24.4371 36.5084 24.8495C36.5193 25.262 36.3648 25.5872 35.9524 25.6581C35.2384 25.7816 35.2583 26.4357 35.0167 26.8899C34.9368 27.0407 35.1221 27.246 35.2075 27.4132C35.4037 27.802 35.3419 28.1199 35.0203 28.4143C34.7078 28.7013 34.4099 29.0047 34.1173 29.3136C33.8412 29.6043 33.525 29.7006 33.1871 29.4717C32.6021 29.0738 32.1424 29.5117 31.6573 29.6897C31.4792 29.7551 31.4738 30.0404 31.4029 30.2293C31.2885 30.5291 31.1068 30.7471 30.767 30.7599C30.6053 30.7653 30.5799 30.8398 30.5799 30.9761C30.5835 32.2878 30.5835 33.6015 30.5799 34.9132C30.5799 35.0949 30.6398 35.1767 30.8233 35.1585C30.8742 35.1531 30.9269 35.1512 30.9778 35.1585C31.452 35.233 31.7281 35.1076 31.9534 34.6007C32.4331 33.5142 33.6976 32.9892 34.8332 33.2835C36.0414 33.596 36.8136 34.6516 36.7645 35.918C36.7191 37.0989 35.8307 38.0964 34.6297 38.3144C33.496 38.5197 32.2877 37.8657 31.8517 36.7665C31.7372 36.4776 31.6119 36.3758 31.3066 36.3958C30.8833 36.4249 30.4581 36.4103 30.033 36.4013C29.5824 36.3922 29.3517 36.156 29.348 35.6999C29.3426 34.9278 29.348 34.1556 29.348 33.3834V33.3816ZM35.2311 24.2209C35.302 23.9375 35.1802 23.7903 34.9077 23.7249C34.5189 23.6322 34.3009 23.3742 34.2209 22.9818C34.1573 22.6657 34.0283 22.3659 33.8557 22.097C33.6395 21.759 33.6104 21.4302 33.8212 21.0868C33.9665 20.8542 33.9157 20.6907 33.7194 20.4927C33.5141 20.2855 33.3434 20.2274 33.0908 20.3818C32.7638 20.5817 32.4385 20.5563 32.1133 20.3473C31.8426 20.1729 31.5428 20.0384 31.2303 19.9749C30.8143 19.8913 30.5544 19.6678 30.4636 19.2663C30.3964 18.9701 30.2129 18.9501 29.9585 18.941C29.686 18.932 29.5315 19.0101 29.4661 19.2826C29.3717 19.6678 29.1246 19.8876 28.7248 19.9694C28.4123 20.033 28.1107 20.162 27.84 20.3364C27.5039 20.5544 27.1696 20.5835 26.828 20.3727C26.5882 20.2238 26.4283 20.2855 26.2303 20.4763C26.0177 20.6816 25.9686 20.8579 26.1213 21.1031C26.3247 21.4338 26.2939 21.7536 26.0886 22.0788C25.9105 22.3622 25.7779 22.6711 25.7088 23C25.6289 23.3761 25.4199 23.6322 25.0438 23.7158C24.7441 23.783 24.6896 23.9538 24.6823 24.2373C24.6732 24.5461 24.8004 24.6806 25.0693 24.746C25.4181 24.8314 25.6162 25.0603 25.6925 25.4055C25.7633 25.7216 25.8723 26.0287 26.0468 26.2958C26.2902 26.6701 26.3411 27.0352 26.0958 27.4095C25.916 27.6839 26.1031 27.8201 26.2593 27.9946C26.4192 28.1726 26.5628 28.2398 26.7808 28.0963C27.1569 27.8492 27.5221 27.8946 27.8927 28.1435C28.138 28.3071 28.4196 28.4143 28.7085 28.4742C29.1155 28.5596 29.3826 28.7849 29.4716 29.1901C29.5352 29.4808 29.7169 29.5135 29.9767 29.5226C30.2565 29.5316 30.4073 29.4408 30.469 29.1719C30.5599 28.7776 30.8179 28.5632 31.2085 28.4815C31.5247 28.4161 31.8244 28.2889 32.0933 28.1163C32.4313 27.9001 32.7565 27.8601 33.1017 28.0745C33.3252 28.2144 33.4942 28.1944 33.694 27.9873C33.8921 27.782 33.9756 27.613 33.8157 27.3568C33.6013 27.0134 33.645 26.6828 33.8593 26.3466C34.032 26.0759 34.1555 25.7762 34.2227 25.46C34.3027 25.0857 34.5007 24.8314 34.8823 24.7405C35.1621 24.6751 35.3128 24.5225 35.2293 24.2191L35.2311 24.2209ZM34.2209 34.4645C33.476 34.4608 32.8946 35.035 32.8946 35.7744C32.8946 36.4994 33.5051 37.108 34.2209 37.1008C34.9259 37.0935 35.52 36.4976 35.5272 35.7926C35.5345 35.0513 34.9604 34.4681 34.2191 34.4645H34.2209Z" fill="#1273EB"/>
<path d="M15.5925 2.72339C15.6688 2.72339 15.7469 2.72339 15.8232 2.72339C16.2193 2.73429 16.4882 2.96685 16.5064 3.31206C16.5245 3.65726 16.2393 3.9516 15.8396 3.96432C15.5416 3.9734 15.2491 4.00792 14.9638 4.07878C13.3595 4.47849 12.2167 5.85751 12.1095 7.50723C12.1041 7.59626 12.0986 7.6871 12.0841 7.77613C12.0187 8.17221 11.7589 8.40114 11.4118 8.37388C11.0721 8.34663 10.8286 8.07228 10.8341 7.67802C10.8413 7.21471 10.9158 6.75868 11.0485 6.31354C11.6517 4.28591 13.4813 2.8433 15.5907 2.72521L15.5925 2.72339Z" fill="#1273EB"/>
<path d="M22.9361 14.4043C22.9361 16.4065 21.31 18.029 19.3078 18.0235C17.3383 18.0181 15.7049 16.3756 15.7031 14.4043C15.7031 12.4221 17.3619 10.7724 19.346 10.7833C21.3246 10.7942 22.9379 12.4184 22.9361 14.4043ZM16.9713 14.4061C16.9713 15.7088 18.0087 16.7608 19.3096 16.7753C20.5996 16.7899 21.7025 15.6961 21.7006 14.4025C21.7006 13.1143 20.6396 12.0514 19.3442 12.0387C18.0305 12.026 16.9695 13.0834 16.9713 14.4061Z" fill="#1273EB"/>
<path d="M29.9768 27.6328C28.1108 27.6419 26.5792 26.1321 26.5665 24.2716C26.5538 22.353 28.06 20.8159 29.9568 20.8123C31.8445 20.8086 33.3634 22.3221 33.3671 24.2116C33.3725 26.1012 31.8645 27.6219 29.975 27.631L29.9768 27.6328ZM29.9731 26.3774C31.165 26.3774 32.128 25.4144 32.1298 24.2262C32.1298 23.0452 31.1596 22.0659 29.9786 22.055C28.7922 22.0441 27.7929 23.047 27.8001 24.2407C27.8074 25.4253 28.7776 26.381 29.9713 26.3792L29.9731 26.3774Z" fill="#1273EB"/>
</svg>
