<svg width="40" height="40" viewBox="0 0 40 40" fill="none" xmlns="http://www.w3.org/2000/svg">
<g clip-path="url(#clip0_984_2008)">
<path d="M-0.000236525 9.74678C0.218112 9.1266 0.458479 8.52844 0.950222 8.04954C1.60894 7.40917 2.38141 7.10091 3.28784 7.10091C6.49701 7.10091 9.70618 7.10091 12.9154 7.10091C15.1888 7.10091 17.4621 7.09908 19.7374 7.10091C20.3612 7.10091 20.7135 7.57614 20.4144 8.02935C20.3154 8.17981 20.1025 8.26972 19.9227 8.34495C19.8108 8.39082 19.6658 8.35963 19.5374 8.35963C14.1576 8.35963 8.77958 8.35963 3.39976 8.35963C2.55206 8.35963 1.8438 8.611 1.45297 9.42935C1.36307 9.61834 1.26949 9.83119 1.26765 10.0349C1.25114 11.2275 1.25848 12.4183 1.25848 13.6459H1.69334C6.98141 13.6459 12.2695 13.6422 17.5576 13.655C17.7924 13.655 18.086 13.7321 18.2438 13.8862C18.3667 14.0055 18.4071 14.3394 18.3282 14.5027C18.2328 14.7009 17.9832 14.833 17.7796 14.9633C17.7062 15.011 17.5759 14.9706 17.4732 14.9706C12.2236 14.9706 6.97408 14.9706 1.72637 14.9706C1.58508 14.9706 1.44197 14.9706 1.27683 14.9706C1.26582 15.0495 1.2493 15.1229 1.2493 15.1945C1.2493 21.7046 1.25114 28.2128 1.2438 34.7229C1.2438 35.5596 1.78508 36.389 2.62729 36.5853C2.886 36.6459 3.1594 36.655 3.42729 36.655C13.0163 36.6587 22.6053 36.6459 32.1943 36.6716C33.4897 36.6752 34.3722 35.7945 34.3704 34.4826C34.3649 30.5449 34.3686 26.6092 34.3686 22.6716C34.3686 22.5541 34.3649 22.4367 34.3686 22.3211C34.3869 21.8495 34.5374 21.6826 34.9447 21.6752C35.319 21.6679 35.5998 21.9394 35.6255 22.3376C35.631 22.4275 35.6255 22.5193 35.6255 22.611C35.6255 26.5486 35.6218 30.4844 35.6291 34.422C35.6291 35.3486 35.4108 36.1945 34.7888 36.8936C34.2365 37.5119 33.5337 37.8789 32.7025 37.9688C32.4585 37.9945 32.2089 37.989 31.9631 37.989C22.5172 37.989 13.0713 37.9853 3.62545 38C2.97775 38 2.35206 38.0844 1.74288 37.7486C0.852975 37.2569 0.291507 36.5431 0.0694882 35.5541C0.0621488 35.5248 0.0217818 35.5027 -0.00390625 35.4789C-0.00390625 26.9027 -0.00390625 18.3248 -0.00390625 9.74862L-0.000236525 9.74678Z" fill="#1273EB"/>
<path d="M23.8252 4.14117C24.3849 4.03841 24.7537 4.40722 25.1537 4.68795C25.383 4.84759 25.6161 5.00905 25.8106 5.20722C26.0234 5.4219 26.2124 5.36685 26.4674 5.29713C27.1647 5.10263 27.3372 4.59071 27.3775 3.96135C27.4197 3.31548 27.539 2.68795 28.1096 2.27878C28.328 2.12282 28.5885 1.94117 28.8381 1.93016C29.4858 1.90263 30.1684 1.84759 30.7775 2.01639C31.561 2.23474 31.8106 2.96318 31.8913 3.72649C31.917 3.9797 31.9353 4.23291 31.9702 4.48428C32.0674 5.18337 32.8913 5.52832 33.4509 5.10997C33.8087 4.84392 34.1867 4.60539 34.5298 4.32282C35.0491 3.89346 35.906 4.0219 36.3115 4.33383C36.7555 4.67511 37.1574 5.08795 37.5115 5.52282C37.983 6.1063 37.917 6.96502 37.4271 7.60172C37.1941 7.90447 36.9885 8.23291 36.7317 8.51548C36.5353 8.73199 36.5463 8.91731 36.6895 9.13383C36.7023 9.15401 36.7188 9.17786 36.7225 9.20172C36.8234 9.82557 37.284 9.93566 37.8087 9.98153C38.15 10.0109 38.4931 10.0604 38.8234 10.143C39.3555 10.2751 40.0381 10.8439 39.9353 11.5522C39.8656 12.0366 39.8895 12.5412 39.9298 13.0311C39.9959 13.8201 39.2601 14.3026 38.6748 14.4219C38.1794 14.5228 37.6785 14.5852 37.1794 14.6641C37.1408 14.6696 37.0986 14.6641 37.0656 14.6806C36.7849 14.8237 36.5794 15.8164 36.7775 16.0751C37.0491 16.4274 37.3317 16.7705 37.5941 17.1283C38.073 17.7815 37.9537 18.8274 37.4197 19.2971C37.0491 19.6237 36.6528 19.932 36.2326 20.1889C35.4931 20.6421 34.8308 20.4898 34.084 19.8568C33.8124 19.6256 33.539 19.3944 33.2509 19.1834C33.172 19.1265 33.0234 19.0971 32.9372 19.1302C32.6803 19.2311 32.3977 19.3265 32.2014 19.5063C32.0601 19.6366 32.0179 19.8953 31.9775 20.1063C31.8968 20.5173 31.8858 20.9448 31.7775 21.3467C31.5372 22.2421 30.9885 22.5393 30.1849 22.6733C29.7665 22.743 29.3078 22.699 28.8876 22.6072C28.0528 22.4256 27.6381 21.9045 27.5207 21.0531C27.4583 20.6035 27.3775 20.154 27.2785 19.7118C27.2564 19.6127 27.1335 19.521 27.0363 19.4568C26.4583 19.0714 25.9794 19.2366 25.4913 19.6751C25.0106 20.1081 24.4876 20.5191 23.7665 20.4274C23.6308 20.4109 23.4913 20.3889 23.361 20.3467C22.4986 20.0604 21.5115 18.7925 21.517 17.9925C21.5207 17.4788 21.783 17.0824 22.0858 16.7045C22.2051 16.5558 22.3317 16.4109 22.4399 16.2531C22.7885 15.7558 22.8161 15.299 22.4051 14.8476C22.2399 14.6678 21.884 14.6494 21.6087 14.5852C21.2032 14.4916 20.783 14.4549 20.3849 14.3375C19.7427 14.1467 19.3445 13.576 19.3353 12.9063C19.3298 12.543 19.3665 12.1742 19.328 11.8164C19.2326 10.9558 19.9353 10.1247 20.9445 10.0568C21.3097 10.0329 21.673 9.96502 22.0289 9.87878C22.6234 9.73566 22.8931 8.86777 22.5317 8.37786C22.2014 7.93199 21.8234 7.49713 21.6087 6.99621C21.3537 6.40355 21.4931 5.79621 21.9519 5.30447C22.1647 5.07694 22.4032 4.87144 22.6069 4.63841C22.9335 4.2641 23.3262 4.07878 23.8234 4.14667L23.8252 4.14117ZM35.1812 15.4678C35.2895 14.965 35.4711 14.1357 36.2142 13.6916C36.6344 13.4402 37.1977 13.4036 37.706 13.3357C38.4711 13.2329 38.5188 13.2109 38.5188 12.4714C38.5188 12.2769 38.5555 12.0733 38.5078 11.8898C38.473 11.7577 38.35 11.598 38.2271 11.5522C38.0308 11.4788 37.7996 11.5045 37.5904 11.4586C37.1537 11.3613 36.6876 11.31 36.2931 11.1191C35.5555 10.765 35.4363 9.97052 35.1775 9.29346C35.1188 9.14117 35.1353 8.95584 35.1445 8.78704C35.1702 8.21823 35.5133 7.80539 35.8509 7.39254C36.5867 6.49346 36.5794 6.39805 35.6913 5.63107C35.6619 5.60539 35.6344 5.55768 35.6051 5.55768C35.4344 5.55584 35.2271 5.50447 35.0986 5.58153C34.7629 5.7852 34.4601 6.04208 34.1482 6.28428C33.1555 7.05676 31.5408 6.79438 30.939 5.68428C30.6785 5.20355 30.5904 4.61089 30.5115 4.05676C30.4069 3.31548 30.4051 3.27328 29.6546 3.27328C29.473 3.27328 29.2803 3.23474 29.1133 3.28428C28.9849 3.32282 28.8179 3.45493 28.7904 3.57236C28.7225 3.86777 28.7207 4.1797 28.7005 4.48612C28.6528 5.17786 28.4619 5.79254 27.7959 6.1375C27.5519 6.2641 27.2821 6.34117 27.0344 6.4586C26.3977 6.75951 25.8106 6.68245 25.2546 6.26227C24.8693 5.97052 24.4674 5.69896 24.0895 5.39621C23.906 5.24942 23.7775 5.26227 23.6252 5.41823C23.3996 5.65126 23.1684 5.88061 22.939 6.10814C22.7519 6.29162 22.7519 6.46594 22.928 6.66594C23.1298 6.89529 23.3097 7.14667 23.495 7.39071C23.9225 7.9485 24.2674 8.53933 24.0197 9.27511C23.8876 9.66961 23.7519 10.0861 23.5078 10.4127C23.2986 10.6916 22.9629 10.9375 22.6326 11.0494C22.1702 11.2072 21.6601 11.2164 21.1739 11.3063C20.8509 11.3669 20.5977 11.4935 20.6619 11.9118C20.6968 12.1393 20.6674 12.3779 20.6693 12.6127C20.6711 12.8843 20.8308 13.0366 21.0748 13.0916C21.284 13.1393 21.5041 13.1357 21.7152 13.1779C22.3262 13.3008 23.0308 13.2531 23.4142 13.8714C23.6693 14.2843 23.8436 14.7503 24.0216 15.2036C24.2271 15.7283 24.0418 16.1962 23.728 16.6237C23.473 16.9724 23.2069 17.3118 22.9445 17.6531C22.728 17.9357 22.6913 18.1907 23.0087 18.4421C23.2014 18.5944 23.3629 18.7834 23.5353 18.9613C23.706 19.1393 23.8785 19.1632 24.0785 19.0072C24.2785 18.8494 24.4876 18.7045 24.6895 18.5485C25.1867 18.1669 25.6986 17.7302 26.361 17.8714C26.8876 17.9834 27.3941 18.2384 27.8803 18.4898C28.2656 18.6898 28.4803 19.0659 28.5537 19.499C28.6381 19.998 28.6986 20.5026 28.783 21.0017C28.8179 21.2109 28.895 21.3889 29.1794 21.365C29.4766 21.3412 29.7794 21.3797 30.0748 21.3485C30.1959 21.3357 30.3775 21.2292 30.4032 21.132C30.4913 20.8035 30.528 20.4623 30.572 20.1228C30.6711 19.3503 30.8785 18.6513 31.6968 18.3302C31.917 18.2439 32.128 18.1265 32.3537 18.0549C32.8766 17.888 33.3941 17.9063 33.8638 18.2182C34.317 18.5191 34.7445 18.8568 35.2032 19.1485C35.3041 19.2127 35.5335 19.2109 35.6234 19.1393C35.9041 18.9118 36.161 18.6494 36.3922 18.3705C36.4619 18.2861 36.4748 18.0733 36.4179 17.976C36.2711 17.7265 36.0583 17.5173 35.8931 17.2769C35.5757 16.8127 35.1243 16.4072 35.1904 15.4623L35.1812 15.4678Z" fill="#1273EB"/>
<path d="M10.728 26.2732C9.24727 26.2732 7.7647 26.2456 6.28397 26.2823C5.20324 26.3099 4.25828 25.3429 4.2803 24.2878C4.31883 22.5355 4.31883 20.7796 4.2803 19.0255C4.25645 17.9429 5.06379 16.9576 6.25094 16.9557C9.27847 16.9484 12.306 16.9264 15.3335 16.9667C16.5133 16.9832 17.2528 17.7943 17.284 18.9851C17.3298 20.7502 17.3115 22.519 17.2895 24.286C17.2748 25.5062 16.2454 26.2897 15.2473 26.2768C13.7409 26.2566 12.2326 26.2713 10.7262 26.2713L10.728 26.2732ZM10.7629 24.9521C12.2289 24.9521 13.6968 24.9521 15.1629 24.9521C15.6785 24.9521 15.9555 24.7282 15.961 24.2328C15.9757 22.4805 15.9739 20.7282 15.961 18.9759C15.9574 18.4952 15.6564 18.2365 15.172 18.2365C12.2381 18.2365 9.30415 18.2365 6.37021 18.2365C5.81058 18.2365 5.61424 18.4365 5.61424 19.0034C5.61241 20.7429 5.61241 22.4823 5.61424 24.2218C5.61424 24.7539 5.81975 24.9521 6.36103 24.9521C7.82709 24.9521 9.29498 24.9521 10.761 24.9521H10.7629Z" fill="#1273EB"/>
<path d="M17.8274 34.7631C13.5136 34.7631 9.19804 34.7631 4.88428 34.7594C4.69345 34.7594 4.49162 34.7356 4.31731 34.6677C4.07511 34.5741 3.9063 34.3539 3.99437 34.1025C4.06777 33.8897 4.23841 33.6823 4.42006 33.5429C4.53199 33.4567 4.74483 33.486 4.9118 33.486C13.5265 33.4842 22.143 33.4823 30.7577 33.4879C30.9577 33.4879 31.1797 33.5117 31.3522 33.5998C31.6164 33.7337 31.7687 34.0163 31.6366 34.2805C31.5357 34.4823 31.2824 34.6218 31.0751 34.7539C30.9907 34.8071 30.8457 34.7668 30.7302 34.7668C26.4292 34.7668 22.1283 34.7668 17.8256 34.7668L17.8274 34.7631Z" fill="#1273EB"/>
<path d="M17.7779 30.6383C13.4256 30.6383 9.07333 30.6383 4.72104 30.6383C4.22746 30.6383 3.97976 30.4292 3.97609 30.0237C3.97425 29.6897 4.18526 29.4402 4.51921 29.3943C4.64765 29.3778 4.77792 29.3796 4.9082 29.3796C13.5229 29.3796 22.1357 29.3796 30.7504 29.3796C30.8421 29.3796 30.932 29.3759 31.0238 29.3815C31.3816 29.4053 31.6458 29.6292 31.6605 29.9209C31.6788 30.2769 31.4311 30.5815 31.0715 30.6347C30.9706 30.6493 30.8642 30.6383 30.7596 30.6383C26.433 30.6383 22.1064 30.6383 17.7798 30.6383H17.7779Z" fill="#1273EB"/>
<path d="M26.075 26.5099C24.464 26.5099 22.853 26.5099 21.242 26.5099C20.831 26.5099 20.5851 26.2751 20.5869 25.8898C20.5869 25.5026 20.831 25.2659 21.2493 25.2641C24.497 25.2622 27.7466 25.2622 30.9943 25.2641C31.4163 25.2641 31.6622 25.5063 31.6585 25.8879C31.6548 26.2677 31.4034 26.5081 30.9869 26.5081C29.3502 26.5118 27.7135 26.5081 26.075 26.5081V26.5099Z" fill="#1273EB"/>
<path d="M4.92248 10.4476C5.14267 10.4476 5.36468 10.444 5.58487 10.4476C5.96835 10.4531 6.21423 10.666 6.23624 11.0018C6.25459 11.299 5.95 11.6752 5.63257 11.688C5.15367 11.7082 4.67111 11.7082 4.19037 11.688C3.87478 11.6752 3.57202 11.31 3.58487 11.0091C3.59955 10.6733 3.87111 10.4458 4.25826 10.4458C4.47844 10.4458 4.70046 10.4458 4.92065 10.4458L4.92248 10.4476Z" fill="#1273EB"/>
<path d="M7.96309 11.6953C7.73006 11.6953 7.4952 11.7063 7.26217 11.6934C6.95208 11.6751 6.60713 11.3099 6.62731 11.0402C6.65483 10.6787 6.90621 10.4512 7.2897 10.4494C7.73006 10.4457 8.17226 10.4494 8.61263 10.4494C9.00713 10.4494 9.26768 10.6769 9.27685 11.0237C9.28419 11.3448 8.9686 11.6787 8.62181 11.6953C8.40162 11.7063 8.18144 11.6971 7.95942 11.6971L7.96309 11.6953Z" fill="#1273EB"/>
<path d="M11.0291 10.4476C11.2364 10.4476 11.4438 10.4476 11.653 10.4476C12.0383 10.4476 12.3025 10.6531 12.3245 10.9724C12.352 11.3687 12.1153 11.6696 11.7062 11.6898C11.2273 11.7136 10.7447 11.71 10.2658 11.6898C9.9869 11.6788 9.6658 11.2971 9.66946 11.0292C9.67313 10.7815 10.0438 10.4513 10.3282 10.4476C10.5612 10.4458 10.7961 10.4476 11.0291 10.4476Z" fill="#1273EB"/>
<path d="M21.4549 22.4403C21.2329 22.3724 20.9852 22.3449 20.7962 22.2256C20.532 22.0605 20.543 21.7852 20.6366 21.5045C20.7301 21.2256 20.9338 21.1926 21.1833 21.2054C21.4164 21.2183 21.6494 21.2164 21.8824 21.2054C22.2127 21.1908 22.4347 21.2953 22.4549 21.6623C22.4769 22.0568 22.2824 22.3339 21.9375 22.3742C21.7833 22.3926 21.6274 22.3779 21.4714 22.3779C21.4659 22.3981 21.4586 22.4201 21.4531 22.4403H21.4549Z" fill="#1273EB"/>
<path d="M29.6803 8.10814C31.9629 7.94668 33.7776 9.97236 33.8455 12.0366C33.9335 14.6274 31.9115 16.4549 29.5794 16.4292C27.4308 16.4054 25.4198 14.6568 25.4932 12.0256C25.5482 10.0494 27.3152 7.93016 29.6785 8.10814H29.6803ZM29.6124 15.0476C31.0106 15.2604 32.684 13.6825 32.5262 12.0568C32.3702 10.4586 31.1831 9.3797 29.5849 9.3742C28.095 9.3687 26.7188 10.6054 26.8179 12.4513C26.884 13.6935 28.0711 15.1687 29.6124 15.0476Z" fill="#1273EB"/>
</g>
<defs>
<clipPath id="clip0_984_2008">
<rect width="40" height="40" fill="white"/>
</clipPath>
</defs>
</svg>
