<svg width="16" height="16" viewBox="0 0 16 16" fill="none" xmlns="http://www.w3.org/2000/svg">
<path d="M3.35782 1.67975C3.3576 2.12502 3.1805 2.55197 2.86548 2.86667C2.55047 3.18137 2.12334 3.35804 1.67807 3.35782C1.2328 3.3576 0.805847 3.1805 0.491147 2.86548C0.176448 2.55047 -0.000222427 2.12334 2.10167e-07 1.67807C0.000222847 1.2328 0.177321 0.805847 0.492335 0.491148C0.807349 0.176448 1.23447 -0.000222427 1.67975 2.10167e-07C2.12502 0.000222847 2.55197 0.177321 2.86667 0.492335C3.18137 0.807349 3.35804 1.23447 3.35782 1.67975ZM3.40819 4.60105H0.0503674V15.111H3.40819V4.60105ZM8.71354 4.60105H5.37251V15.111H8.67996V9.5958C8.67996 6.5234 12.6842 6.23799 12.6842 9.5958V15.111H16V8.45415C16 3.27471 10.0735 3.46779 8.67996 6.01133L8.71354 4.60105Z" fill="white"/>
</svg>
