<svg width="40" height="40" viewBox="0 0 40 40" fill="none" xmlns="http://www.w3.org/2000/svg">
<path d="M21.4205 24.1157C21.2333 20.5928 23.9526 18.5212 26.1031 18.2368C29.5985 17.7744 32.3911 20.0827 32.7012 23.5616C34.2499 23.3891 35.5911 23.8864 36.6811 24.9763C37.6444 25.9377 38.0957 27.1579 38.037 28.5084C37.9434 30.6974 36.2535 33.3451 32.4333 33.1469C32.4333 33.2717 32.4333 33.3965 32.4333 33.5194C32.4333 34.7799 32.4333 36.0405 32.4333 37.301C32.4333 37.8882 32.1911 38.1322 31.6113 38.1322C28.8168 38.1322 26.0242 38.1194 23.2297 38.1451C22.7196 38.1506 22.4223 37.879 22.437 37.3341C22.4755 35.9469 22.4499 34.5598 22.4499 33.1396C22.0095 33.1396 21.5966 33.1304 21.1838 33.1396C19.1636 33.1891 17.2884 31.5414 16.9177 29.6387C16.5012 27.4955 17.426 25.7304 19.2077 24.7616C19.8517 24.4111 20.6444 24.3322 21.4168 24.1157H21.4205ZM22.4535 31.8937C22.4535 30.3965 22.4535 28.9542 22.4535 27.512C22.4535 27.1708 22.6664 26.9084 22.9966 26.9047C24.27 26.8919 25.5434 26.8845 26.8168 26.9047C27.2774 26.912 27.6645 27.4662 27.281 27.8772C27.1526 28.0148 26.9269 28.1286 26.7434 28.1322C25.7361 28.1561 24.7269 28.1432 23.7214 28.1432V31.8643H31.1636V28.1432C30.5453 28.1432 29.9489 28.1432 29.3526 28.1432C28.9214 28.1432 28.6939 27.9341 28.6902 27.5396C28.6866 27.1231 28.9141 26.8992 29.3599 26.8955C30.1269 26.8919 30.8939 26.8919 31.6609 26.8955C32.1618 26.8974 32.4315 27.1653 32.4333 27.6662C32.437 28.5891 32.4333 29.512 32.4333 30.435C32.4333 30.912 32.4333 31.3873 32.4333 31.8864C32.7563 31.8864 33.0407 31.9065 33.3214 31.8827C34.2003 31.8093 34.9948 31.512 35.6425 30.8974C36.47 30.1102 36.8205 29.1561 36.7343 28.0001C36.6352 26.69 35.9508 25.802 34.8627 25.1836C33.9783 24.6809 33.0077 24.7396 32.0425 24.8717C31.6499 24.9249 31.3361 24.5799 31.3324 24.1781C31.3288 23.6166 31.3434 23.0313 31.1948 22.501C30.5453 20.1726 27.9196 18.857 25.5801 19.668C23.4811 20.3965 22.2388 22.6919 22.8077 24.8038C22.9416 25.301 22.4957 25.7029 21.982 25.6221C21.5398 25.5524 21.0682 25.5157 20.6333 25.5928C19.1453 25.8552 18.0095 27.312 18.07 28.8295C18.1196 30.0753 19.0957 31.2368 20.0333 31.6533C20.8095 32.0001 21.615 31.8497 22.4517 31.89L22.4535 31.8937ZM23.7104 36.8607H31.1655V33.1616H23.7104V36.8607Z" fill="#1273EB"/>
<path d="M17.4608 20.0754C17.4608 21.4149 17.4608 22.7635 17.4608 24.1121C17.4608 24.813 17.2516 25.0277 16.5672 25.0277C13.7599 25.0277 10.9525 25.0277 8.14518 25.0277C7.67913 25.0277 7.47913 24.824 7.47913 24.3525C7.47913 22.925 7.47913 21.4993 7.47913 20.035C7.04059 20.035 6.62959 20.0277 6.21674 20.035C4.19289 20.0791 2.34335 18.4791 1.95436 16.5745C1.51582 14.4369 2.4094 12.6589 4.23693 11.6589C4.88096 11.3066 5.67362 11.2295 6.4094 11.0222C6.47362 10.5029 6.4883 9.86991 6.63326 9.26991C7.15069 7.11762 8.85344 5.52312 11.0149 5.14881C12.6755 4.86257 14.2443 5.20569 15.569 6.27175C16.7268 7.20386 17.4736 8.41303 17.6259 9.93964C17.6516 10.191 17.6516 10.4626 17.9103 10.6828C18.2461 10.9672 18.1415 11.4185 17.7268 11.6075C17.47 11.7231 17.1837 11.7965 16.9048 11.8314C16.6736 11.8607 16.3305 11.3598 16.3709 11.0864C16.5213 10.0479 16.2865 9.0901 15.6846 8.24606C14.8846 7.12679 13.8167 6.49376 12.4021 6.36165C11.3103 6.26074 10.3709 6.54881 9.50849 7.13413C8.58371 7.75982 8.04794 8.68276 7.79656 9.75982C7.64427 10.4149 7.65894 11.0736 7.84977 11.7286C7.97637 12.1635 7.49564 12.635 7.04793 12.5415C5.03509 12.1195 3.49931 13.2369 3.13784 15.0626C2.8461 16.5323 3.63876 17.9488 5.13234 18.5506C5.85527 18.8424 6.17271 18.8534 7.46078 18.769C7.46628 18.6607 7.47729 18.5488 7.47729 18.4369C7.47729 17.0974 7.47729 15.7598 7.47729 14.4204C7.47729 14.0387 7.70115 13.8002 8.09014 13.8002C10.9745 13.7947 13.8608 13.7947 16.7452 13.8002C17.1856 13.8002 17.4571 14.0919 17.4571 14.5506C17.4608 15.824 17.4571 17.0993 17.4571 18.3727C17.4571 18.4993 17.4571 18.6277 17.4571 18.7506C19.3323 19.013 21.092 18.0039 21.6094 16.325C22.1268 14.6516 21.4865 12.9195 19.8681 12.0809C19.2901 11.7818 19.1213 11.2791 19.5213 10.9433C19.6589 10.8277 19.9489 10.747 20.0993 10.813C21.7764 11.5378 22.7525 12.8039 22.9984 14.635C23.2149 16.2497 22.6791 17.5965 21.5507 18.7029C20.8369 19.4039 19.9599 19.8607 18.9378 19.9598C18.4553 20.0075 17.9709 20.0387 17.4571 20.0791L17.4608 20.0754ZM16.1911 18.7763V15.0626H8.74702V18.7763H16.1911ZM8.73417 23.7562H16.1892V20.0571H8.73417V23.7562Z" fill="#1273EB"/>
<path d="M32.5802 13.5616C32.6867 11.734 32.1876 10.1194 31.1068 8.68266C29.9876 7.19459 28.4867 6.28816 26.6903 5.86248C26.3582 5.78358 26.0059 5.79092 25.6628 5.75789C24.5252 5.65147 23.4059 5.75789 22.3656 6.24046C21.6958 6.55055 21.0591 6.94504 20.4445 7.35605C19.9931 7.65697 19.661 7.62578 19.3013 7.19826C18.8683 6.68633 18.3967 6.20376 17.9307 5.72119C17.4995 5.27349 17.4701 4.96706 17.9344 4.55422C18.8261 3.76156 19.8463 3.15605 20.9545 2.7267C22.3215 2.19826 23.7435 1.89183 25.2224 1.93404C27.6775 2.00376 29.9307 2.70651 31.8995 4.18358C33.9527 5.72486 35.294 7.77624 35.9967 10.2386C36.3747 11.5616 36.4151 12.9285 36.3105 14.2863C36.2738 14.7597 36.4151 14.8331 36.7912 14.8973C37.072 14.945 37.3362 15.09 37.6133 15.1781C37.8903 15.2661 38.0591 15.4772 38.0334 15.7322C38.0133 15.9267 37.872 16.1689 37.7087 16.2772C36.3931 17.1505 35.0628 17.9983 33.7344 18.8496C33.2463 19.1634 32.8848 19.0294 32.6683 18.49C32.083 17.0368 31.4995 15.5836 30.8812 14.145C30.7472 13.835 30.8334 13.5928 31.0078 13.4258C31.1435 13.2973 31.4261 13.2551 31.6298 13.2808C31.938 13.3194 32.2334 13.4496 32.5839 13.5561L32.5802 13.5616ZM20.0023 6.08449C20.061 6.0533 20.0958 6.04046 20.127 6.01844C21.5454 4.99459 23.1417 4.47532 24.8793 4.44596C25.7931 4.43128 26.6977 4.55605 27.5949 4.8056C29.5105 5.33587 31.0206 6.44046 32.1802 8.00193C33.6059 9.91936 34.0922 12.1047 33.7619 14.4698C33.7013 14.9065 33.3637 15.134 32.9344 15.0239C32.8316 14.9983 32.727 14.9744 32.5857 14.9414C32.9289 15.7872 33.2536 16.5836 33.5986 17.4331C34.3637 16.9414 35.1178 16.457 35.9197 15.9414C35.0812 15.7285 34.7564 15.5157 35.0041 14.6937C35.072 14.4661 35.0885 14.2148 35.0867 13.9726C35.083 12.9872 35.0812 12.0093 34.8683 11.0276C34.3729 8.75422 33.2041 6.90651 31.439 5.43862C30.3545 4.53771 29.1087 3.92119 27.727 3.55789C26.3967 3.20926 25.0445 3.07532 23.705 3.28449C22.0665 3.54138 20.5142 4.10835 19.1619 5.19642C19.439 5.48816 19.7215 5.78541 20.0023 6.08082V6.08449Z" fill="#1273EB"/>
<path d="M27.3747 30.6424C26.9857 30.6424 26.5949 30.6424 26.2059 30.6424C25.8096 30.6405 25.5784 30.4222 25.5729 30.0515C25.5673 29.6497 25.7894 29.402 26.1912 29.3983C26.9967 29.391 27.8022 29.391 28.6077 29.3983C28.993 29.402 29.3288 29.7158 29.316 30.0369C29.3031 30.3781 28.9839 30.6424 28.5839 30.6442C28.182 30.6442 27.7784 30.6442 27.3765 30.6442L27.3747 30.6424Z" fill="#1273EB"/>
<path d="M27.3747 35.6349C26.9857 35.6349 26.5949 35.6349 26.2059 35.6349C25.8077 35.6331 25.5784 35.4147 25.5729 35.0423C25.5673 34.6404 25.7894 34.3927 26.1912 34.389C26.9967 34.3817 27.8022 34.3817 28.6077 34.389C28.9912 34.3927 29.3288 34.7065 29.316 35.0276C29.3013 35.3689 28.9839 35.6331 28.5839 35.6349C28.182 35.6349 27.7784 35.6349 27.3765 35.6349H27.3747Z" fill="#1273EB"/>
<path d="M12.4349 17.5378C12.0331 17.5378 11.6294 17.5378 11.2276 17.5378C10.8313 17.536 10.6037 17.3176 10.5982 16.9415C10.5927 16.536 10.8148 16.2956 11.2239 16.292C12.0166 16.2846 12.8074 16.2864 13.6001 16.292C14.0148 16.2938 14.3597 16.602 14.3414 16.936C14.3212 17.2773 14.0056 17.536 13.6037 17.5378C13.2148 17.5378 12.8239 17.5378 12.4349 17.5378Z" fill="#1273EB"/>
<path d="M12.4351 22.5304C12.0332 22.5304 11.6296 22.5304 11.2277 22.5304C10.8314 22.5286 10.6039 22.3102 10.6002 21.9341C10.5947 21.5286 10.8167 21.2882 11.2259 21.2846C12.0314 21.2772 12.8369 21.2772 13.6406 21.2846C14.0185 21.2882 14.3598 21.613 14.3415 21.9286C14.3213 22.2552 14.0075 22.5268 13.6424 22.5304C13.2406 22.5323 12.8369 22.5304 12.4351 22.5304Z" fill="#1273EB"/>
</svg>
