<svg width="15" height="15" viewBox="0 0 15 15" fill="none" xmlns="http://www.w3.org/2000/svg">
<path d="M8.74344 11.6611L4.70948 9.46093C4.32226 9.8453 3.82991 10.1064 3.2945 10.2114C2.7591 10.3163 2.2046 10.2604 1.70092 10.0507C1.19724 9.84099 0.766928 9.48684 0.46423 9.03291C0.161531 8.57898 0 8.0456 0 7.5C0 6.9544 0.161531 6.42102 0.46423 5.96709C0.766928 5.51316 1.19724 5.15902 1.70092 4.94929C2.2046 4.73957 2.7591 4.68367 3.2945 4.78862C3.82991 4.89358 4.32226 5.1547 4.70948 5.53907L8.74344 3.33895C8.60508 2.68983 8.70501 2.0126 9.02494 1.43111C9.34487 0.849614 9.86342 0.402709 10.4858 0.17212C11.1081 -0.0584693 11.7927 -0.0573336 12.4143 0.175319C13.0358 0.407972 13.5529 0.856595 13.8709 1.43915C14.1889 2.0217 14.2866 2.69926 14.1461 3.34791C14.0056 3.99656 13.6363 4.57297 13.1057 4.97171C12.5752 5.37046 11.9188 5.56491 11.2567 5.51949C10.5945 5.47408 9.97085 5.19184 9.4997 4.72439L5.46575 6.92451C5.5461 7.3037 5.5461 7.69551 5.46575 8.0747L9.4997 10.2756C9.97085 9.80816 10.5945 9.52592 11.2567 9.48051C11.9188 9.4351 12.5752 9.62954 13.1057 10.0283C13.6363 10.427 14.0056 11.0034 14.1461 11.6521C14.2866 12.3007 14.1889 12.9783 13.8709 13.5609C13.5529 14.1434 13.0358 14.592 12.4143 14.8247C11.7927 15.0573 11.1081 15.0585 10.4858 14.8279C9.86342 14.5973 9.34487 14.1504 9.02494 13.5689C8.70501 12.9874 8.60508 12.3102 8.74344 11.6611Z" fill="white"/>
</svg>
