<svg width="40" height="40" viewBox="0 0 40 40" fill="none" xmlns="http://www.w3.org/2000/svg">
<g clip-path="url(#clip0_985_2059)">
<path d="M20.9703 0C21.684 0.179545 22.4181 0.302273 23.1067 0.552273C26.534 1.79091 28.8158 5.05 28.8249 8.69091C28.8271 9.96591 28.5567 11.1886 28.0203 12.3477C27.9726 12.45 27.9317 12.5568 27.8771 12.6909H29.6317C29.6317 12.1455 29.6612 11.5909 29.6271 11.0409C29.5271 9.46136 30.1771 9.21136 31.4112 9.23636C33.2953 9.27273 35.1794 9.24545 37.0658 9.24545C37.209 9.24545 37.3521 9.24546 37.4953 9.25455C38.1999 9.31136 38.6135 9.73182 38.6226 10.4432C38.6362 11.5205 38.6317 12.6 38.6226 13.6795C38.6203 14.1341 38.384 14.3886 38.0158 14.3773C37.6612 14.3659 37.4408 14.0909 37.4385 13.6409C37.434 12.5909 37.4385 11.5409 37.4385 10.4636H30.8226V38.7341H37.4385C37.4385 38.5773 37.4385 38.4136 37.4385 38.2523C37.4385 31.0523 37.4385 23.8545 37.4385 16.6545C37.4385 16.5114 37.4271 16.3659 37.4476 16.2273C37.4931 15.9068 37.7749 15.6568 38.0658 15.6955C38.384 15.7341 38.5908 15.9136 38.6135 16.25C38.6249 16.4045 38.6226 16.5614 38.6226 16.7182C38.6226 23.8795 38.6226 31.0386 38.6226 38.2V38.7182C39.1044 38.8432 39.6999 38.5523 39.9999 39.1455V39.5364C39.8249 39.8364 39.5658 39.9318 39.2181 39.9295C26.4294 39.9227 13.6385 39.9227 0.849873 39.9227C0.758964 39.9227 0.665782 39.9341 0.577146 39.9159C0.254419 39.8523 0.0657823 39.6591 0.0771459 39.3227C0.0885096 38.9932 0.274873 38.7795 0.606691 38.7636C1.0476 38.7409 1.48851 38.7591 1.97715 38.7591C1.98396 38.6023 1.99533 38.4659 1.99533 38.3295C1.99533 35.2636 1.99987 32.1955 1.98624 29.1295C1.98624 28.9545 1.88169 28.7455 1.75896 28.6136C1.45896 28.2909 1.38851 27.9545 1.5976 27.4682C2.55669 25.2273 3.5226 22.9909 4.46806 20.7455C4.59306 20.4455 4.64306 20.1023 4.66806 19.775C4.72033 19.0636 4.6726 18.3432 4.77487 17.6409C4.90896 16.7045 5.39306 15.9182 6.0476 15.2364C6.68624 14.5705 7.32942 13.9091 7.95215 13.2273C8.45215 12.6795 9.05896 12.3909 9.79533 12.3364C9.90669 12.3273 10.0567 12.2341 10.1067 12.1364C10.6317 11.1523 11.5408 10.6886 12.5158 10.95C13.4885 11.2114 14.1521 12.1068 14.0431 13.1523C14.0385 13.1909 14.0476 13.2295 14.0544 13.3318C14.6703 13.3318 15.2885 13.3182 15.9067 13.3341C16.8817 13.3614 17.634 14.1705 17.6135 15.1432C17.5931 16.1182 16.8203 16.8591 15.7771 16.8727C14.659 16.8864 13.5362 16.9409 12.4249 16.8545C11.6499 16.7955 11.2181 17.1386 10.8203 17.7818C11.0499 17.7818 11.2476 17.7818 11.4453 17.7818C12.6862 17.7932 13.4453 18.85 13.0408 20.025C12.6817 21.0659 12.2976 22.1 11.9271 23.1364C11.9021 23.2091 11.8862 23.2841 11.8567 23.3886H14.7544C14.7544 23.2545 14.7544 23.1182 14.7544 22.9818C14.7544 22.0341 14.7499 21.0841 14.7544 20.1364C14.759 19.2455 15.2112 18.8023 16.109 18.8023C17.8499 18.8023 19.5931 18.8023 21.334 18.8023C21.4749 18.8023 21.6158 18.8023 21.7862 18.8023V17.3023C21.4021 17.3364 21.0226 17.3932 20.6408 17.4C20.0976 17.4091 19.5499 17.4 19.0067 17.3614C18.5635 17.3295 18.3112 17.0409 18.3544 16.6955C18.4021 16.3227 18.7158 16.1273 19.1703 16.1932C23.1021 16.7477 26.9726 13.8386 27.5294 9.91136C28.1294 5.68636 25.4544 2.00227 21.2521 1.26591C17.3226 0.579546 13.3203 3.42727 12.6976 7.37045C12.6135 7.90455 12.584 8.45227 12.5771 8.99546C12.5726 9.41364 12.3794 9.71591 12.0135 9.73409C11.6703 9.75227 11.3999 9.48182 11.384 9.08636C11.3317 7.90455 11.4999 6.74773 11.9431 5.65455C13.2294 2.47273 15.5771 0.615909 18.9635 0.075C19.0362 0.0636364 19.1067 0.025 19.1771 0C19.7749 0 20.3726 0 20.9703 0ZM15.9567 19.9977C15.9567 21.1068 15.9567 22.1932 15.9612 23.2795C15.9612 23.3364 16.034 23.4318 16.0862 23.4432C16.9249 23.6386 17.0612 24.2523 17.059 24.9886C17.0499 29.4182 17.0544 33.85 17.0544 38.2795V38.725H22.584C22.584 38.5477 22.584 38.3932 22.584 38.2386C22.584 34.225 22.584 30.2091 22.584 26.1955C22.584 26.0409 22.5771 25.8818 22.6021 25.7295C22.6544 25.4159 22.8544 25.2568 23.1703 25.2523C23.5658 25.2477 23.7658 25.5114 23.7658 26.0386C23.7658 30.1182 23.7658 34.1977 23.7658 38.2773V38.7227H29.5953V13.8773C29.0862 13.8773 28.6021 13.9159 28.1271 13.8682C27.459 13.8 26.9908 13.9864 26.5431 14.5409C25.6203 15.6841 24.3817 16.4273 22.9885 16.9364C22.9885 17.5182 22.9794 18.0909 22.9976 18.6614C22.9999 18.7614 23.0931 18.8932 23.184 18.95C23.5771 19.2091 23.7658 19.5636 23.7681 20.0295C23.7681 21.0955 23.7726 22.1591 23.7681 23.225C23.7681 23.6682 23.5271 23.9364 23.1612 23.9318C22.8112 23.925 22.5931 23.6727 22.5885 23.2409C22.5817 22.5386 22.5862 21.8386 22.5862 21.1364C22.5862 20.7636 22.5862 20.3909 22.5862 20H15.959L15.9567 19.9977ZM9.81806 28.8636H3.20669V38.725H9.81806C9.81806 37.3477 9.81806 35.9977 9.81806 34.6477C9.81806 34.1864 10.0249 33.9273 10.3885 33.9227C10.7681 33.9159 10.984 34.1795 10.984 34.6659C10.984 35.8864 10.984 37.1091 10.984 38.3295C10.984 38.4659 10.984 38.6023 10.984 38.7295H15.8294V24.6409H9.25215V27.6477C9.41805 27.6477 9.55669 27.6455 9.69533 27.6477C10.5567 27.6636 10.9817 28.0955 10.9817 28.9523C10.9817 29.9136 10.9817 30.875 10.9817 31.8364C10.9817 32.3386 10.7885 32.5909 10.4044 32.5955C10.0135 32.6 9.81351 32.3523 9.81351 31.8545C9.81351 30.8682 9.81351 29.8818 9.81351 28.8636H9.81806ZM9.74078 23.4477C10.0862 23.3159 10.4726 23.65 10.6431 23.1977C11.084 22.0205 11.5044 20.8364 11.9181 19.6523C12.0635 19.2341 11.8658 18.9682 11.4181 18.9545C11.0158 18.9432 10.6135 18.9455 10.209 18.9545C9.80215 18.9614 9.49987 18.7977 9.33396 18.4295C9.17033 18.0636 9.23396 17.7227 9.50442 17.4205C9.86805 17.0136 10.2362 16.6114 10.5862 16.1932C10.8953 15.825 11.2771 15.6818 11.7499 15.6864C13.0612 15.6977 14.3749 15.6932 15.6862 15.6886C16.1612 15.6886 16.4408 15.4545 16.4271 15.0818C16.4158 14.725 16.1385 14.5045 15.6931 14.5023C15.0294 14.5 14.3681 14.4886 13.7044 14.5091C13.4999 14.5159 13.2726 14.5795 13.0976 14.6864C12.0681 15.3091 10.7249 14.9773 10.1953 13.8932C9.99533 13.4841 9.73624 13.4909 9.4226 13.6068C9.22487 13.6818 9.03396 13.8205 8.88396 13.9727C8.18396 14.6886 7.49533 15.4136 6.81124 16.1432C6.31124 16.6773 5.96124 17.3023 5.90442 18.0386C5.8476 18.7477 5.86806 19.4636 5.83169 20.1773C5.81806 20.4295 5.7726 20.6932 5.67487 20.925C4.79306 23.0136 3.89533 25.0977 3.00442 27.1818C2.9476 27.3182 2.8976 27.4568 2.84306 27.6023C3.45821 27.6977 3.89078 27.4932 4.14078 26.9886C5.06578 25.1182 5.99306 23.25 6.91806 21.3795C7.38169 20.4417 8.14078 19.978 9.19533 19.9886C10.1931 19.9977 10.6271 20.6 10.3294 21.5568C10.1408 22.1591 9.95442 22.7636 9.74078 23.4523V23.4477ZM9.18169 21.2159C8.62715 21.1674 8.23927 21.3682 8.01805 21.8182C7.14305 23.5841 6.26806 25.35 5.39533 27.1159C5.3226 27.2636 5.25896 27.4136 5.17033 27.6068H8.03624C8.03624 27.0273 8.01806 26.4705 8.04078 25.9159C8.0726 25.1295 7.95896 24.3659 8.42715 23.5909C8.84078 22.9045 8.93851 22.0273 9.18396 21.2159H9.18169ZM12.0181 13.8068C12.4976 13.7977 12.8703 13.4136 12.8658 12.9318C12.8612 12.4341 12.4681 12.0614 11.9612 12.0773C11.4817 12.0932 11.1226 12.4795 11.134 12.9682C11.1453 13.4477 11.534 13.8159 12.0181 13.8068Z" fill="#1273EB"/>
</g>
<defs>
<clipPath id="clip0_985_2059">
<rect width="40" height="40" fill="white"/>
</clipPath>
</defs>
</svg>
