<svg width="41" height="40" viewBox="0 0 41 40" fill="none" xmlns="http://www.w3.org/2000/svg">
<g clip-path="url(#clip0_985_2030)">
<path d="M0.349121 32.0464C0.349121 29.648 0.349121 27.2496 0.349121 24.8512C0.349121 24.2967 0.488948 24.1545 1.04115 24.1521C3.07456 24.1521 5.10561 24.1521 7.13902 24.1521C7.64856 24.1521 7.81446 24.3227 7.8192 24.8323C7.82157 25.2115 7.83342 25.5907 7.81446 25.9699C7.80024 26.2495 7.88082 26.2803 8.13914 26.1974C9.62747 25.7092 11.1276 25.2518 12.6136 24.7564C13.0449 24.6119 13.4407 24.6071 13.8744 24.7233C17.8109 25.7874 21.7521 26.842 25.6934 27.8966C26.5679 28.1312 27.2409 28.6123 27.6083 29.4513C27.7339 29.7404 27.8287 29.7594 28.0989 29.6172C30.7793 28.2047 33.4644 26.8041 36.1519 25.4058C37.2421 24.8394 38.3252 24.8394 39.3182 25.6049C40.8421 26.7827 40.6785 29.0887 39.003 30.1054C37.9294 30.7595 36.8297 31.3733 35.7396 32.0014C32.2131 34.0372 28.6842 36.0682 25.1649 38.1158C24.4894 38.5093 23.7974 38.7036 23.0129 38.7131C20.1951 38.7391 17.3772 38.7747 14.5617 38.8766C13.1421 38.9287 11.8007 38.5756 10.4333 38.3268C9.6488 38.1846 8.86435 38.0353 8.087 37.8646C7.84053 37.8101 7.81683 37.8954 7.82157 38.0945C7.82868 38.514 7.82868 38.9335 7.82157 39.3553C7.81683 39.8293 7.6533 39.9999 7.19353 39.9999C5.11983 40.0023 3.04849 39.9999 0.974788 39.9999C0.498428 39.9999 0.353861 39.8506 0.351491 39.3624C0.351491 36.9238 0.351491 34.4851 0.351491 32.0464H0.349121ZM18.3963 37.8907V37.7248C20.0363 37.7248 21.6739 37.7248 23.3139 37.7248C23.7026 37.7248 24.0557 37.6039 24.3899 37.4096C29.0539 34.715 33.718 32.0251 38.3821 29.3304C39.3253 28.7853 39.6334 27.79 39.1523 26.906C38.6925 26.0599 37.6545 25.7518 36.7231 26.2329C33.8389 27.7236 30.9665 29.2333 28.087 30.7311C27.9282 30.814 27.8571 30.9183 27.8216 31.0984C27.5158 32.6697 26.0251 33.6532 24.4823 33.2598C22.3754 32.7242 20.278 32.1459 18.1759 31.5866C17.4981 31.4065 16.8179 31.2288 16.1401 31.0415C15.768 30.9396 15.5832 30.6908 15.6566 30.4111C15.7325 30.1173 15.9955 29.994 16.3723 30.0793C16.4387 30.0936 16.5027 30.1125 16.5691 30.1291C19.2447 30.8448 21.9157 31.57 24.5937 32.2739C25.6365 32.5488 26.601 31.9919 26.8404 31.0178C27.075 30.0604 26.4944 29.1385 25.4706 28.8636C21.4914 27.7971 17.5099 26.7353 13.5308 25.6689C13.3696 25.6262 13.2298 25.6049 13.0615 25.6594C11.4026 26.195 9.74123 26.7211 8.07989 27.2473C7.90926 27.3018 7.8192 27.3705 7.8192 27.5814C7.82631 30.5628 7.82631 33.5442 7.8192 36.5256C7.8192 36.746 7.89267 36.8171 8.10833 36.855C9.05157 37.0257 9.99007 37.2318 10.9333 37.4072C12.0069 37.6063 13.0592 37.9215 14.173 37.8978C15.5808 37.867 16.9909 37.8907 18.3987 37.8907H18.3963ZM1.32317 32.1151C1.32317 34.2955 1.32791 36.4782 1.31843 38.6586C1.31843 38.9216 1.35635 39.0377 1.66207 39.033C3.27364 39.0164 4.88757 39.0188 6.49914 39.033C6.78116 39.0354 6.83567 38.9358 6.8333 38.6823C6.82856 34.2931 6.82619 29.904 6.8333 25.5148C6.8333 25.2044 6.73613 25.1285 6.43752 25.1309C4.86624 25.1451 3.29497 25.1451 1.72369 25.1309C1.41323 25.1285 1.31132 25.202 1.31369 25.5314C1.32791 27.726 1.3208 29.9206 1.3208 32.1151H1.32317Z" fill="#1273EB"/>
<path d="M14.896 6.58135C14.8984 2.90793 17.8253 -0.00473412 21.5105 5.77682e-06C25.1437 0.00474567 28.0729 2.95533 28.0682 6.60505C28.0634 10.2382 25.1152 13.1674 21.4655 13.1674C17.8205 13.1674 14.8936 10.2334 14.896 6.58135ZM25.6556 10.2856C27.6842 8.09812 27.5041 4.52187 25.3024 2.48845C22.9965 0.355498 19.4534 0.497695 17.3276 2.82499C15.1946 5.15938 15.6046 8.54367 17.3133 10.2643C17.548 9.73576 17.8537 9.26651 18.2661 8.87072C18.6879 8.46783 19.1903 8.19055 19.7473 7.97251C19.5932 7.79477 19.4724 7.66679 19.3657 7.52933C18.432 6.32777 18.669 4.60482 19.8895 3.71372C21.1313 2.80603 22.8519 3.10938 23.7122 4.38678C24.4208 5.43904 24.3 6.7591 23.4112 7.74974C23.3378 7.83269 23.0842 7.93222 23.3875 8.05072C24.4493 8.46783 25.1887 9.21911 25.6579 10.2856H25.6556ZM21.5793 8.7783C21.2949 8.7783 21.0934 8.77356 20.8896 8.7783C19.7094 8.81385 18.6547 9.56986 18.2258 10.6553C18.1096 10.9515 18.1547 11.1198 18.4272 11.2833C20.1762 12.338 21.9869 12.4849 23.8544 11.6436C25.0109 11.1222 25.0678 10.807 24.2336 9.82581C23.5155 8.98211 22.5746 8.70483 21.5816 8.77593L21.5793 8.7783ZM21.4845 7.56962C22.423 7.56962 23.1979 6.78754 23.1837 5.86089C23.1695 4.93898 22.4111 4.19008 21.4892 4.18534C20.5483 4.17823 19.7781 4.93898 19.7781 5.87748C19.7781 6.81598 20.5388 7.57199 21.4868 7.56962H21.4845Z" fill="#1273EB"/>
<path d="M33.4667 12.838C33.4359 13.1484 33.5402 13.3617 33.7748 13.5229C33.9644 13.6532 34.1564 13.7836 34.3246 13.94C34.609 14.2031 34.8982 14.2884 35.2845 14.1557C35.6992 14.0135 36.0523 14.1675 36.2917 14.5562C36.5903 15.0397 36.8747 15.5326 37.1449 16.0303C37.3653 16.4332 37.3131 16.8242 36.9624 17.1347C36.6875 17.3764 36.6448 17.6466 36.6946 17.9713C36.7301 18.1988 36.7586 18.4263 36.7823 18.6538C36.8131 18.9714 36.9434 19.2013 37.2491 19.3553C37.6828 19.5734 37.8345 19.9384 37.716 20.4076C37.5857 20.9314 37.4458 21.4527 37.2918 21.9718C37.1425 22.4766 36.8699 22.6851 36.3414 22.6733C36.0357 22.6662 35.8248 22.7823 35.6565 23.0217C35.5333 23.1994 35.4148 23.3843 35.2679 23.5407C34.9906 23.8322 34.8958 24.1284 35.0285 24.5361C35.1588 24.9437 34.9669 25.285 34.6114 25.503C34.1279 25.7992 33.635 26.0836 33.1349 26.3514C32.7059 26.5813 32.367 26.5315 32.0329 26.1761C31.803 25.932 31.5636 25.8443 31.2366 25.9154C30.9735 25.9722 30.701 25.9865 30.4332 26.0125C30.1725 26.0386 29.9852 26.15 29.8502 26.3894C29.5539 26.9179 29.2482 27.0458 28.677 26.9013C28.1793 26.7757 27.684 26.6429 27.1911 26.4984C26.7029 26.3562 26.4635 26.0552 26.4801 25.5457C26.4896 25.2233 26.3782 25.0029 26.1175 24.8299C25.9255 24.7043 25.7383 24.5669 25.57 24.4104C25.307 24.1687 25.0415 24.0929 24.6837 24.2114C24.2571 24.3536 23.9111 24.2066 23.6717 23.8203C23.366 23.325 23.0745 22.8202 22.7996 22.3083C22.5981 21.9315 22.6621 21.5333 22.9868 21.2371C23.2641 20.9859 23.3375 20.7133 23.2404 20.3626C23.2001 20.2204 23.193 20.0687 23.1835 19.9194C23.1574 19.4928 23.046 19.1539 22.6052 18.9406C22.2166 18.7534 22.1478 18.3505 22.2426 17.95C22.3659 17.4238 22.5104 16.9024 22.6621 16.3834C22.8067 15.8905 23.0934 15.6724 23.6196 15.689C23.9442 15.6985 24.1599 15.5658 24.3329 15.3146C24.4562 15.1368 24.577 14.9543 24.724 14.7979C24.9799 14.5254 25.0605 14.2457 24.942 13.8737C24.814 13.4731 24.9491 13.1129 25.3117 12.8878C25.8165 12.5749 26.3355 12.281 26.8569 11.9919C27.2361 11.7834 27.6153 11.8426 27.895 12.1554C28.158 12.4469 28.4353 12.5228 28.8003 12.4375C29.0088 12.3877 29.2269 12.364 29.4425 12.3545C29.753 12.3403 29.971 12.2194 30.1274 11.9374C30.4 11.4468 30.7247 11.3188 31.2816 11.461C31.7651 11.5843 32.2485 11.717 32.7273 11.8545C33.2818 12.0132 33.4786 12.2882 33.4691 12.8285L33.4667 12.838ZM24.9159 23.171C25.7478 23.1591 27.2598 24.1711 27.3736 24.9247C27.4684 25.5575 27.8167 25.6926 28.3097 25.7826C28.4543 25.8087 28.6012 25.8466 28.741 25.8964C28.8737 25.9462 28.9543 25.9272 29.0515 25.8087C29.6226 25.1214 31.1607 24.6901 31.9997 24.9721C32.0637 24.9935 32.1419 25.0077 32.1846 25.0527C32.6609 25.5836 33.0946 25.3015 33.5307 24.9911C33.6184 24.9295 33.7132 24.8726 33.8127 24.8299C33.9905 24.7517 34.0308 24.6403 33.9999 24.4436C33.853 23.562 34.8816 21.9102 35.7821 21.7727C36.377 21.6826 36.4718 21.3698 36.5547 20.9266C36.5808 20.7821 36.6306 20.6399 36.678 20.4977C36.7396 20.3104 36.7159 20.1825 36.5239 20.0616C36.0831 19.7843 35.8769 19.3506 35.8177 18.8411C35.7821 18.533 35.7537 18.2225 35.6992 17.9168C35.6352 17.5518 35.6613 17.1655 35.8983 16.9119C36.2846 16.4996 36.1637 16.1701 35.8864 15.7981C35.7821 15.6582 35.7016 15.4994 35.621 15.343C35.5451 15.1913 35.4622 15.1511 35.2726 15.1819C34.3815 15.3193 32.879 14.3856 32.5709 13.53C32.5614 13.5039 32.5495 13.4779 32.5519 13.4518C32.5898 12.8119 32.1514 12.6768 31.6537 12.5939C31.5068 12.5702 31.3622 12.5323 31.2247 12.4778C31.0683 12.4161 30.9901 12.4706 30.8929 12.601C30.3265 13.3428 28.6178 13.7315 27.7788 13.3238C27.7551 13.312 27.7243 13.3049 27.7077 13.2859C27.3214 12.7953 26.9517 13.0465 26.5773 13.3049C26.4327 13.4044 26.2786 13.4897 26.1199 13.5679C25.9706 13.6414 25.9516 13.7457 25.9682 13.8997C26.0654 14.7979 25.1837 16.246 24.3448 16.5801C24.3068 16.5944 24.2666 16.6204 24.2286 16.6157C23.5674 16.5446 23.494 17.0257 23.3992 17.4902C23.3755 17.6087 23.3375 17.7248 23.2996 17.8409C23.2309 18.0519 23.2617 18.1893 23.4726 18.3386C24.231 18.8766 24.5604 20.8318 23.994 21.576C23.757 21.8865 23.7523 22.0997 23.9703 22.377C24.0438 22.4718 24.0959 22.5856 24.1552 22.6922C24.34 23.0145 24.4609 23.4459 24.923 23.1733L24.9159 23.171Z" fill="#1273EB"/>
<path d="M18.0953 17.1109C18.1071 20.7583 15.1731 23.7278 11.5542 23.7349C7.90687 23.742 4.92785 20.8104 4.91363 17.1962C4.89941 13.5323 7.83814 10.5675 11.4902 10.5627C15.1518 10.558 18.0858 13.4659 18.0977 17.1086L18.0953 17.1109ZM5.91137 17.1014C5.85213 20.1326 8.3382 22.6708 11.4428 22.749C14.4029 22.8225 17.0051 20.3293 17.1141 17.4072C17.2279 14.3997 14.9527 11.6529 11.6846 11.5486C8.50647 11.4491 5.97299 13.9162 5.91137 17.1014Z" fill="#1273EB"/>
<path d="M29.997 14.4734C32.5802 14.4758 34.6871 16.585 34.6966 19.1777C34.706 21.7918 32.5731 23.9082 29.9353 23.901C27.3687 23.8939 25.2405 21.7491 25.2476 19.1777C25.2547 16.585 27.3876 14.471 29.997 14.4758V14.4734ZM31.7318 16.5969C31.4094 16.5874 31.1677 16.2982 31.2886 15.9807C31.4047 15.6773 31.2175 15.6347 31.0397 15.6204C30.8454 15.6062 30.5657 15.2887 30.4567 15.7295C30.3927 15.9902 30.2245 16.1276 29.9661 16.1252C29.722 16.1229 29.5585 15.9807 29.4993 15.7461C29.3831 15.2815 29.0964 15.6086 28.8949 15.6228C28.703 15.637 28.5323 15.7129 28.6722 15.9902C28.7741 16.1963 28.6627 16.393 28.4802 16.5139C28.2811 16.6466 28.0228 16.6585 27.8877 16.4689C27.6483 16.1371 27.518 16.3765 27.3711 16.5234C27.2075 16.6893 26.9137 16.8339 27.2786 17.1111C27.4374 17.232 27.4445 17.4429 27.3402 17.6325C27.2478 17.8032 27.0914 17.9383 26.916 17.8814C26.4207 17.7155 26.4231 18.0568 26.3378 18.3672C26.269 18.6089 26.2975 18.6943 26.5653 18.7227C26.7833 18.744 26.9065 18.936 26.9231 19.1588C26.9373 19.365 26.8402 19.5854 26.6482 19.6091C26.0936 19.6802 26.3615 20.0025 26.4089 20.2655C26.4468 20.4788 26.5179 20.5997 26.7833 20.4978C27.0013 20.4149 27.2099 20.5025 27.3331 20.7253C27.4564 20.9481 27.4137 21.1566 27.2312 21.3131C26.8734 21.6212 27.2786 21.716 27.3924 21.8605C27.4872 21.9838 27.6199 22.2468 27.8403 21.9316C27.9825 21.7302 28.2242 21.7207 28.4304 21.8273C28.639 21.934 28.7741 22.1425 28.6698 22.3677C28.5276 22.6734 28.7077 22.7303 28.9186 22.7564C29.1248 22.7824 29.4092 23.0597 29.5064 22.5999C29.5561 22.3606 29.7481 22.2373 29.9875 22.2445C30.2055 22.2516 30.3927 22.3582 30.433 22.5905C30.5041 23.0218 30.7743 22.8156 30.9829 22.7682C31.1819 22.7232 31.4403 22.7184 31.2744 22.3677C31.1867 22.1828 31.2886 21.9956 31.4545 21.87C31.6227 21.742 31.8574 21.7017 31.9806 21.8416C32.3859 22.3084 32.5375 21.8534 32.7627 21.6591C32.8859 21.5548 32.9025 21.46 32.7461 21.3391C32.5423 21.1827 32.4854 20.9647 32.6181 20.7253C32.7508 20.4859 32.9712 20.4196 33.2106 20.5025C33.6443 20.6542 33.5163 20.2561 33.5756 20.1068C33.623 19.9835 33.8529 19.6873 33.4144 19.6565C33.1822 19.6399 33.0423 19.4503 33.0376 19.1991C33.0329 18.9479 33.1632 18.744 33.3931 18.7274C33.6988 18.7037 33.6704 18.5568 33.6088 18.3625C33.5258 18.1018 33.5803 17.6989 33.0684 17.8861C32.8788 17.9548 32.7058 17.815 32.6086 17.6302C32.4996 17.4216 32.5328 17.2107 32.7034 17.0756C33.0755 16.7817 32.694 16.668 32.5731 16.5258C32.4617 16.3978 32.3171 16.111 32.0967 16.4547C32.0209 16.5708 31.8763 16.604 31.7318 16.5969Z" fill="#1273EB"/>
<path d="M13.6113 18.943C13.59 19.6161 13.1397 20.2583 12.3007 20.6091C12.0661 20.7063 12.0021 20.82 12.0045 21.0523C12.0045 21.6305 11.8481 21.8699 11.5044 21.8628C11.1655 21.8557 11.0091 21.6163 11.0186 21.0357C11.0233 20.7892 10.9333 20.6944 10.7105 20.602C9.99715 20.3081 9.55871 19.7749 9.43547 18.9999C9.36437 18.5638 9.49946 18.2865 9.81466 18.2249C10.1275 18.1657 10.3479 18.3837 10.419 18.8245C10.528 19.4928 11.1324 19.9005 11.7888 19.7464C12.4311 19.5971 12.7795 18.9359 12.5709 18.2889C12.4287 17.8505 12.0969 17.6893 11.6798 17.6443C11.4926 17.623 11.2983 17.6443 11.1134 17.6111C10.118 17.4428 9.55871 16.8456 9.41888 15.8194C9.30276 14.9615 9.78859 14.0728 10.6323 13.7268C10.9641 13.5917 11.0541 13.4163 11.0162 13.0964C10.9902 12.8736 11.0352 12.6603 11.2343 12.5181C11.5661 12.2787 12.0116 12.5015 11.9926 12.9447C11.9737 13.4021 12.1325 13.6106 12.5496 13.8073C13.2274 14.1297 13.5853 14.7316 13.6137 15.5042C13.6255 15.8289 13.4739 16.0446 13.1587 16.0635C12.8458 16.0825 12.6776 15.881 12.6302 15.5658C12.5235 14.8288 12.0519 14.452 11.3504 14.5325C10.8243 14.5918 10.4356 15.0089 10.4143 15.535C10.3882 16.1726 10.6465 16.5162 11.2556 16.6205C11.521 16.6655 11.7983 16.6465 12.0614 16.7034C13.052 16.9143 13.6137 17.6443 13.6137 18.9407L13.6113 18.943Z" fill="#1273EB"/>
<path d="M29.4733 18.0852C29.4733 17.7321 29.4614 17.3813 29.4756 17.0305C29.4875 16.7272 29.6273 16.5068 29.9662 16.4997C30.3075 16.4926 30.4521 16.7106 30.471 17.014C30.49 17.3386 30.4781 17.6633 30.4781 17.988C30.4781 18.462 30.7088 18.6998 31.1702 18.7014C31.2649 18.7014 31.3597 18.7014 31.4545 18.7014C31.765 18.7085 31.9475 18.8838 31.9522 19.1754C31.9593 19.4669 31.7816 19.6612 31.4735 19.6683C30.9734 19.6778 30.471 19.6778 29.971 19.6683C29.6368 19.6612 29.4899 19.4455 29.4756 19.1398C29.459 18.7891 29.4709 18.4359 29.4709 18.0852H29.4733Z" fill="#1273EB"/>
</g>
<defs>
<clipPath id="clip0_985_2030">
<rect width="40.0166" height="40" fill="white" transform="translate(0.349121)"/>
</clipPath>
</defs>
</svg>
